<svg width="124" height="34" viewBox="0 0 124 34" fill="none" xmlns="http://www.w3.org/2000/svg">
<path d="M3.08812 11.9536C3.65568 11.9974 3.9722 12.0302 4.53976 12.0302C6.01322 12.0302 7.2793 11.7567 7.2793 9.89646C7.2793 8.39736 6.4498 7.69705 4.73622 7.69705C4.09226 7.69705 3.54653 7.69705 3.07721 7.71893V11.9536H3.08812ZM3.08812 6.18701C3.39373 6.18701 3.83031 6.21984 4.25598 6.21984C5.48932 6.21984 6.82089 5.89157 6.82089 4.10797C6.82089 2.67452 5.96956 2.05081 4.13592 2.05081C3.80848 2.05081 3.4483 2.07269 3.08812 2.1274V6.18701ZM0.970703 3.15598C0.970703 2.68546 0.948874 1.00035 0.785156 0.759614C2.05124 0.737729 4.07043 0.661133 4.85628 0.661133C7.32296 0.661133 8.97106 1.43804 8.97106 3.81252C8.97106 5.11466 8.46899 6.31832 7.15924 6.92015C8.58905 7.3469 9.48404 8.57244 9.48404 9.97305C9.48404 10.5311 9.34215 11.7019 8.5563 12.5554C7.58491 13.6059 6.10053 13.6825 4.20141 13.6825C2.848 13.6825 2.20405 13.6497 0.796071 13.6278C0.93796 13.4308 0.981618 12.1178 0.981618 11.2752V3.15598H0.970703Z" fill="white"/>
<path d="M25.4194 13.628C25.6049 13.2998 25.5612 12.1946 25.4958 11.2535L25.1574 5.83709L20.0712 14.1751L15.127 5.85898L14.7668 11.5271C14.7449 11.9539 14.7013 13.4748 14.8323 13.628H12.9004C13.0859 13.453 13.206 11.8007 13.2278 11.2754L13.8281 0.158027L20.2786 10.7611L26.7946 0.114258L27.4604 11.4067C27.504 11.9867 27.6459 13.5186 27.7987 13.6171H25.4194V13.628Z" fill="white"/>
<path d="M39.2707 4.45836L34.5338 14.2736L31.052 3.26565C30.6264 1.94163 30.4299 1.3398 29.9824 0.759855H32.6456C32.6456 1.13189 32.6892 1.61336 33.1258 2.99209L35.145 9.2511L39.5217 0.114258L43.8985 9.22922L45.3501 4.66627C46.2342 1.84315 46.2778 1.18661 46.2778 0.759855H48.6135C48.297 1.08813 47.5002 3.36413 46.9436 5.1149L44.0185 14.2627L39.2707 4.45836Z" fill="white"/>
<path d="M61.403 8.59482C61.403 7.79603 61.3376 7.16137 61.1957 6.9863H63.7169C63.575 7.1942 63.4986 8.03676 63.4986 8.66047V13.0921C61.9706 13.8471 60.1697 13.9456 59.1983 13.9456C53.9157 13.9456 50.9688 11.0131 50.9688 6.95347C50.9688 2.93763 53.8284 0.420898 58.4125 0.420898C60.388 0.420898 62.7455 0.891419 63.1712 0.891419C63.2694 0.891419 63.3568 0.891419 63.4113 0.869534L63.3131 3.25496C62.2653 2.17167 59.8859 1.95282 58.7726 1.95282C55.6293 1.95282 53.2281 3.64889 53.2281 6.9097C53.2281 9.88601 55.2036 12.3699 59.0783 12.3699C59.9623 12.3699 60.6936 12.2386 61.403 11.9432V8.59482Z" fill="#936F38"/>
<path d="M71.2732 6.71264C72.583 6.69076 73.98 6.3406 73.98 4.58983C73.98 3.11261 72.9868 2.10592 70.9785 2.10592C70.5747 2.10592 70.1054 2.13875 69.6251 2.22629V6.75641L71.2732 6.71264ZM76.1193 13.6282L71.9172 8.63849C71.6334 8.31022 71.4151 8.26645 71.1313 8.26645H69.6142V11.3522C69.6142 11.9321 69.6579 13.2562 69.8543 13.6282H67.2894C67.4859 13.3546 67.4859 11.9759 67.4859 11.3194V3.26581C67.4859 2.46702 67.464 0.956976 67.2676 0.760014C68.4136 0.760014 70.5201 0.639648 71.3387 0.639648C74.5912 0.639648 76.1848 2.46702 76.1848 4.32721C76.1848 5.45427 75.5954 7.25976 73.5762 7.75216C73.9036 7.77405 75.1915 9.61236 77.7128 12.3917C78.3786 13.1248 78.7169 13.475 79.2627 13.6173H76.1193V13.6282Z" fill="#936F38"/>
<path d="M85.8211 4.61175L84.1075 8.46345H87.5784L85.8211 4.61175ZM89.7394 13.6282C89.7176 13.0702 89.2592 12.0525 88.2878 9.9735H83.4418L82.7541 11.5711C82.1538 12.9717 82.0884 13.2453 82.0447 13.6282H79.5234C79.8618 13.5079 80.5931 12.2167 80.9751 11.3413L85.9848 0.103516L91.1911 11.4835C91.7368 12.6434 92.0752 13.5079 92.4572 13.6173H89.7394V13.6282Z" fill="#936F38"/>
<path d="M96.6039 4.47037V12.1409C96.6039 13.0382 96.6693 13.4212 96.7894 13.6182H94.7266C94.9339 13.4868 94.9339 11.8127 94.9339 11.3859V0.137207L105.521 10.0072V3.22294C105.521 2.42415 105.521 0.990709 105.335 0.749977H107.431C107.213 1.04542 107.213 2.9275 107.213 3.31048V14.3404L96.6039 4.47037Z" fill="#936F38"/>
<path d="M113.675 11.9868C114.461 12.0415 115.323 12.1072 116.076 12.1072C119.765 12.1072 121.784 10.6737 121.784 7.12843C121.784 3.92232 120.114 2.27003 116.218 2.27003C115.367 2.27003 114.439 2.34663 113.675 2.44511V11.9868ZM111.35 13.6282C111.536 13.4969 111.546 11.8008 111.546 11.1661V3.50651C111.546 2.37945 111.525 0.924125 111.328 0.770932H112.583C113.249 0.770932 115.367 0.694336 116.24 0.694336C120.9 0.694336 124 2.90469 124 7.10654C124 11.3412 120.857 13.7485 116.098 13.7485C115.05 13.7485 113.096 13.6282 112.223 13.6282H111.35Z" fill="#936F38"/>
<path d="M14.0365 21.5731C12.0173 21.8795 10.0636 22.6564 8.26268 23.6084C6.54909 24.5275 4.93374 25.6437 3.59126 27.0224C2.59803 28.1057 1.07 30.0206 2.1942 31.4759C2.95821 32.4498 5.14112 31.9793 6.15617 31.8917C11.0459 31.3118 15.8046 28.7294 20.8362 28.0619C21.2291 28.0072 22.8117 27.9197 22.1569 28.7841C21.9277 29.1452 20.9781 29.0905 20.607 29.1233C15.7391 29.9221 11.0241 32.3513 5.89422 32.9313C4.60631 33.0735 2.31426 33.3799 1.41926 32.1434C0.0876908 30.6334 1.12457 28.5106 2.20511 27.1865C3.7768 25.3045 5.85056 23.8054 8.03347 22.6455C10.2164 21.4746 12.6503 20.5445 15.1607 20.4679C16.2849 20.4132 17.3981 20.5774 18.3586 21.1354C18.6424 21.2777 19.0462 21.4965 19.1226 21.781C19.2754 22.2515 18.6533 22.5908 18.304 22.3063C17.158 21.3762 15.4335 21.3762 14.0365 21.5731Z" fill="white"/>
<path d="M24.6245 26.3321C24.1006 26.8573 23.5985 27.3935 23.1292 27.9625C22.9218 28.1923 22.3215 28.8488 22.1251 29.3084C22.5507 29.2209 22.9437 29.0348 23.3803 28.8816C24.0679 28.6081 24.7773 28.3236 25.5086 28.1595C25.8251 28.0829 26.4254 27.9078 26.7419 28.1266C27.2222 28.4549 26.8947 28.9582 26.4254 29.0458C25.9997 29.1333 25.5632 29.188 25.1375 29.3303C24.1443 29.6695 23.2165 30.14 22.1687 30.337C21.8195 30.3917 21.4266 30.3589 21.1973 30.0525C20.4879 29.0786 22.2997 27.3716 22.9 26.7698C23.926 25.6974 24.9956 24.7017 26.1635 23.7825C26.5127 23.509 26.9711 23.0056 27.3968 22.9181C27.877 22.7758 28.2045 23.4433 27.7897 23.7278C26.6437 24.4938 25.5959 25.3801 24.6245 26.3321Z" fill="white"/>
<path d="M27.1656 28.8598C26.8709 28.8926 26.6199 28.9692 26.4234 29.0786C26.6636 29.0239 26.9255 28.9583 27.1656 28.8598ZM29.1739 28.2032C29.414 28.1814 29.676 28.2251 29.9161 28.3127C30.4182 28.5862 30.3854 28.8707 30.178 29.2099C31.2804 29.0677 32.4155 28.433 33.4306 28.1485C33.7143 28.0719 34.0309 27.9297 34.3146 28.1266C34.7403 28.4549 34.4784 28.9911 34.009 29.0458C33.2123 29.1662 32.4373 29.571 31.6952 29.8008C31.0075 30.0306 30.0471 30.4245 29.283 30.1729C28.8574 29.9759 28.7591 29.6695 28.8901 29.3303C28.65 29.3631 28.3881 29.4178 28.137 29.4944C27.4821 29.6914 26.8709 29.965 26.2161 30.0853C25.7904 30.1619 25.2883 30.14 25.0591 29.7242C24.5025 28.6956 26.3252 27.9406 27.0783 27.8531C27.6895 27.7765 28.2898 27.8531 28.8683 28.0172C29.0102 28.0719 29.1084 28.1266 29.1739 28.2032Z" fill="white"/>
<path d="M34.3368 28.1046C34.9916 28.6407 36.8362 28.214 37.0763 28.98C37.9931 28.7064 38.9973 28.5094 39.7722 28.3453C40.4817 28.203 41.7368 27.842 42.479 28.0389C42.8719 28.1812 42.9593 28.6845 42.6318 28.9143C42.3917 29.1113 41.9442 29.0018 41.6386 29.0565C39.9905 29.2535 38.3533 29.6146 36.7816 30.118C36.3123 30.2602 35.2645 30.9824 34.9152 30.3915C34.6751 29.9101 35.1554 29.5161 35.6465 29.3629C35.1226 29.2754 34.1512 29.2754 33.7583 28.8596C33.158 28.3015 33.9002 27.7872 34.3368 28.1046Z" fill="white"/>
<path d="M42.7962 28.1046C43.451 28.6407 45.2956 28.214 45.5357 28.98C46.4525 28.7064 47.4567 28.5094 48.2207 28.3453C48.9301 28.203 50.1853 27.842 50.9275 28.0389C51.3204 28.1812 51.4077 28.6845 51.0803 28.9143C50.8402 29.1113 50.3927 29.0018 50.0871 29.0565C48.439 29.2535 46.8018 29.6146 45.2301 30.118C44.7608 30.2602 43.713 30.9824 43.3637 30.3915C43.1236 29.9101 43.6038 29.5161 44.095 29.3629C43.5711 29.2754 42.5997 29.2754 42.2068 28.8596C41.6174 28.3015 42.3596 27.7872 42.7962 28.1046Z" fill="white"/>
</svg>
